<svg id="图层_1" data-name="图层 1" xmlns="http://www.w3.org/2000/svg" viewBox="0 0 349.6 384.69"><defs><style>.cls-1{fill:#fff;}</style></defs><title>logo White version</title><path class="cls-1" d="M426.42,460.28l-48.21,156a4.1,4.1,0,0,1-6.82,1.69L315.67,562.2a4.1,4.1,0,0,1-1-4.11l48.21-156a4.1,4.1,0,0,1,6.82-1.69l55.72,55.72A4.1,4.1,0,0,1,426.42,460.28Z" transform="translate(-314.48 -329.42)"/><path class="cls-1" d="M459.87,490.63h0L409.65,653.07a4.08,4.08,0,0,0,1,4.12l55.72,55.72a4.11,4.11,0,0,0,6.82-1.7L522.14,552.9h0l50.22-162.45a4.09,4.09,0,0,0-1-4.11l-55.71-55.71a4.1,4.1,0,0,0-6.82,1.68Z" transform="translate(-314.48 -329.42)"/><path class="cls-1" d="M662.87,477.87l-55.72-55.72a4.1,4.1,0,0,0-6.81,1.69l-48.22,156a4.13,4.13,0,0,0,1,4.11l55.72,55.72a4.1,4.1,0,0,0,6.82-1.69L663.89,482A4.09,4.09,0,0,0,662.87,477.87Z" transform="translate(-314.48 -329.42)"/></svg>